<?xml version="1.0" encoding="UTF-8"?>
<svg xmlns="http://www.w3.org/2000/svg" width="32" height="32" viewBox="0 0 16 16" version="1.1">
  <title>Time to Time Converter</title>
  <g fill="#3a86ff">
    <path d="M8.515 1.019A7 7 0 0 0 8 1V0a8 8 0 0 1 .589.022zm2.004.45a7 7 0 0 0-.985-.299l.219-.976a8 8 0 0 1 1.125.34zm1.69.398a7 7 0 0 0-.883-.522l.33-.94a8 8 0 0 1 1.008.596zm1.565.793a7 7 0 0 0-.747-.71l.485-.874a8 8 0 0 1 .852.807zm1.248 1.188a7 7 0 0 0-.575-.845l.614-.789a8 8 0 0 1 .657.965zm.796 1.485a7 7 0 0 0-.37-.934l.723-.673a8 8 0 0 1 .423 1.065zm.426 1.756a7 7 0 0 0-.142-.97l.798-.527a8 8 0 0 1 .162 1.105zm.06 1.946a7 7 0 0 0 .117-.966l.808.417a8 8 0 0 1-.134 1.102zm-.317 1.749a7 7 0 0 0 .37-.863l.742.487a8 8 0 0 1-.423.986zm-.678 1.417a7 7 0 0 0 .575-.744l.616.788a8 8 0 0 1-.656.85zm-1.032 1.093a7 7 0 0 0 .748-.555l.448.894a8 8 0 0 1-.855.635zm-1.316.687a7 7 0 0 0 .864-.345l.257.966a8 8 0 0 1-.986.394zm-1.536.288a7 7 0 0 0 .921-.125l.051.996a8 8 0 0 1-1.05.143zm-3.136-.013a7 7 0 0 0 .949.05l-.05.997a8 8 0 0 1-1.08-.058zm-1.621-.26a7 7 0 0 0 .928.207l-.156.986a8 8 0 0 1-1.058-.236zm-1.506-.498a7 7 0 0 0 .855.35l-.258.965a8 8 0 0 1-.977-.399zm-1.307-.722a7 7 0 0 0 .739.477l-.447.895a8 8 0 0 1-.845-.545zm-1.047-.904a7 7 0 0 0 .59.58l-.617.788a8 8 0 0 1-.673-.663zm-.773-1.073a7 7 0 0 0 .412.647l-.742.487a8 8 0 0 1-.472-.74zm-.47-1.16a7 7 0 0 0 .22.687l-.845.334a8 8 0 0 1-.252-.786zm-.2-1.215a7 7 0 0 0 .025.695l-.914.162a8 8 0 0 1-.028-.795zm.008-1.213a7 7 0 0 0-.172.662l-.944-.207a8 8 0 0 1 .197-.756zm.184-1.174a7 7 0 0 0-.362.593l-.831-.407a8 8 0 0 1 .413-.677zm.41-1.081a7 7 0 0 0-.525.48l-.678-.667a8 8 0 0 1 .6-.55zm.648-.937a7 7 0 0 0-.658.326l-.494-.86a8 8 0 0 1 .752-.372zm.866-.709a7 7 0 0 0-.748.153l-.281-.95a8 8 0 0 1 .855-.175zM8 0a8 8 0 1 0 0 16A8 8 0 0 0 8 0M3 8a5 5 0 1 1 2.525 4.332l-.873.49A5.989 5.989 0 0 0 8 14a6 6 0 1 0-3.53-1.35L3.53 13.4 2 11.87l-.471.53A5 5 0 0 1 3 8m6.93 6.484-1.38-.785A1.5 1.5 0 0 1 7.5 12.5V8h1v4.5l1.547.887a3.001 3.001 0 0 0-1.43-6.382 3 3 0 0 0-3.008 4.5h-1.018A4 4 0 0 1 8 3.5a4 4 0 0 1 1.93 7.484"/>
  </g>
</svg>