<svg width="402" height="402" viewBox="0 0 402 402" fill="none" xmlns="http://www.w3.org/2000/svg">
<rect width="402" height="402" rx="40" fill="#444444"/>
<g clip-path="url(#clip0_353_2)">
<path d="M211.171 63.1253C207.787 62.8754 204.394 62.7502 201 62.75V43C204.882 43.0019 208.762 43.1468 212.633 43.4345L211.171 63.1253ZM250.75 72.0128C244.419 69.5696 237.917 67.5958 231.297 66.1075L235.622 46.8315C243.206 48.53 250.619 50.7815 257.86 53.586L250.75 72.0128ZM277.808 86.0353C274.984 84.1519 272.092 82.3732 269.137 80.7028L278.874 63.5203C285.628 67.345 292.09 71.6622 298.209 76.4368L286.063 92.0195C283.386 89.9306 280.632 87.9411 277.808 86.055V86.0353ZM314.029 121.388C310.122 115.838 305.811 110.583 301.132 105.667L315.431 92.0393C320.777 97.6878 325.695 103.679 330.185 110.012L314.029 121.388ZM328.723 148.09C327.428 144.958 326.018 141.875 324.497 138.847L342.133 129.959C345.62 136.894 348.59 144.076 351.021 151.447L332.258 157.629C331.198 154.407 330.018 151.225 328.723 148.09ZM339.191 197.603C339.03 190.816 338.37 184.05 337.216 177.359L356.669 174.002C357.986 181.638 358.75 189.341 358.961 197.109L339.191 197.603ZM336.604 227.979C337.262 224.634 337.795 221.277 338.203 217.906L357.815 220.335C356.863 228.04 355.345 235.665 353.273 243.147L334.234 237.873C335.142 234.621 335.932 231.323 336.604 227.979ZM317.801 274.964C321.435 269.223 324.635 263.245 327.4 257.031L345.452 265.03C342.292 272.14 338.638 278.973 334.49 285.53L317.801 274.964ZM298.762 298.763C301.172 296.353 303.476 293.865 305.675 291.297L320.645 304.194C318.111 307.134 315.47 309.98 312.726 312.726L298.762 298.763Z" fill="#EEEEEE"/>
<path d="M201 62.75C178.266 62.7516 155.882 68.3599 135.833 79.0781C115.783 89.7963 98.6865 105.294 86.0566 124.197C73.4267 143.101 65.6536 164.828 63.4258 187.453C61.198 210.078 64.5842 232.903 73.2846 253.907C81.985 274.911 95.731 293.446 113.305 307.868C130.879 322.291 151.739 332.157 174.036 336.593C196.334 341.029 219.382 339.897 241.138 333.298C262.893 326.7 282.686 314.838 298.763 298.763L312.726 312.726C294.353 331.109 271.73 344.676 246.861 352.226C221.991 359.775 195.644 361.074 170.152 356.008C144.661 350.941 120.813 339.665 100.721 323.178C80.6289 306.692 64.9138 285.504 54.9676 261.492C45.0215 237.48 41.1516 211.386 43.7006 185.521C46.2497 159.657 55.1392 134.82 69.5813 113.212C84.0235 91.6035 103.572 73.8912 126.496 61.6441C149.42 49.3969 175.01 42.9931 201 43V62.75Z" fill="#EEEEEE"/>
<path d="M191.125 102.25C193.744 102.25 196.256 103.29 198.108 105.142C199.96 106.994 201 109.506 201 112.125V215.023L265.148 251.678C267.356 253.01 268.955 255.153 269.604 257.649C270.253 260.144 269.9 262.795 268.621 265.033C267.342 267.272 265.237 268.922 262.758 269.63C260.278 270.338 257.62 270.047 255.352 268.822L186.227 229.322C184.716 228.458 183.459 227.211 182.585 225.705C181.711 224.2 181.251 222.491 181.25 220.75V112.125C181.25 109.506 182.29 106.994 184.142 105.142C185.994 103.29 188.506 102.25 191.125 102.25Z" fill="#3A86FF"/>
</g>
<defs>
<clipPath id="clip0_353_2">
<rect width="316" height="316" fill="white" transform="translate(43 43)"/>
</clipPath>
</defs>
</svg>
